<?xml version="1.0" encoding="utf-8" standalone="no"?>
<!DOCTYPE svg PUBLIC "-//W3C//DTD SVG 1.1//EN"
  "http://www.w3.org/Graphics/SVG/1.1/DTD/svg11.dtd">
<!-- Created with matplotlib (https://matplotlib.org/) -->
<svg height="345.6pt" version="1.1" viewBox="0 0 460.8 345.6" width="460.8pt" xmlns="http://www.w3.org/2000/svg" xmlns:xlink="http://www.w3.org/1999/xlink">
 <defs>
  <style type="text/css">
*{stroke-linecap:butt;stroke-linejoin:round;}
  </style>
 </defs>
 <g id="figure_1">
  <g id="patch_1">
   <path d="M 0 345.6 
L 460.8 345.6 
L 460.8 0 
L 0 0 
z
" style="fill:#ffffff;"/>
  </g>
  <g id="axes_1">
   <g id="patch_2">
    <path d="M 32.92 159.58 
L 169.697299 159.58 
L 169.697299 10.8 
L 32.92 10.8 
z
" style="fill:#ffffff;"/>
   </g>
   <g id="matplotlib.axis_1">
    <g id="xtick_1">
     <g id="line2d_1">
      <defs>
       <path d="M 0 0 
L 0 3.5 
" id="m5c1097796e" style="stroke:#000000;stroke-width:0.8;"/>
      </defs>
      <g>
       <use style="stroke:#000000;stroke-width:0.8;" x="39.13715" xlink:href="#m5c1097796e" y="159.58"/>
      </g>
     </g>
     <g id="text_1">
      <!-- -20 -->
      <defs>
       <path d="M 46.484375 33.203125 
L 1.953125 33.203125 
L 1.953125 39.453125 
L 46.484375 39.453125 
z
" id="SimHei-45"/>
       <path d="M 4.6875 3.90625 
Q 5.078125 9.765625 10.15625 14.453125 
Q 15.234375 19.140625 23.046875 29.09375 
Q 30.859375 39.0625 33.203125 44.53125 
Q 35.546875 50 34.953125 53.90625 
Q 34.375 57.8125 31.25 60.34375 
Q 28.125 62.890625 24.015625 62.5 
Q 19.921875 62.109375 16.203125 59.375 
Q 12.5 56.640625 10.546875 51.171875 
L 3.125 52.34375 
Q 6.25 61.328125 11.125 65.421875 
Q 16.015625 69.53125 22.65625 69.921875 
Q 26.5625 70.3125 29.6875 69.71875 
Q 32.8125 69.140625 36.125 66.984375 
Q 39.453125 64.84375 41.59375 60.546875 
Q 43.75 56.25 43.15625 50.1875 
Q 42.578125 44.140625 37.109375 35.734375 
Q 31.640625 27.34375 16.015625 9.375 
L 44.140625 9.375 
L 44.140625 2.34375 
L 4.6875 2.34375 
z
" id="SimHei-50"/>
       <path d="M 3.125 29.296875 
Q 3.90625 50 6.4375 56.046875 
Q 8.984375 62.109375 13.671875 66.015625 
Q 18.359375 69.921875 25.1875 69.921875 
Q 32.03125 69.921875 37.109375 64.25 
Q 42.1875 58.59375 43.75 50 
Q 45.3125 41.40625 44.71875 30.265625 
Q 44.140625 19.140625 40.8125 12.109375 
Q 37.5 5.078125 30.859375 2.34375 
Q 24.21875 -0.390625 17.578125 2.921875 
Q 10.9375 6.25 8.203125 11.71875 
Q 5.46875 17.1875 4.296875 23.234375 
Q 3.125 29.296875 3.90625 50 
z
M 12.890625 52.734375 
Q 10.546875 31.25 12.5 22.84375 
Q 14.453125 14.453125 18.9375 10.9375 
Q 23.4375 7.421875 28.125 9.5625 
Q 32.8125 11.71875 34.953125 18.15625 
Q 37.109375 24.609375 37.109375 32.21875 
Q 37.109375 39.84375 36.515625 46.09375 
Q 35.9375 52.34375 33 57.421875 
Q 30.078125 62.5 25.1875 62.6875 
Q 20.3125 62.890625 16.59375 57.8125 
Q 12.890625 52.734375 10.546875 31.25 
z
" id="SimHei-48"/>
      </defs>
      <g transform="translate(31.63715 173.455)scale(0.1 -0.1)">
       <use xlink:href="#SimHei-45"/>
       <use x="50" xlink:href="#SimHei-50"/>
       <use x="100" xlink:href="#SimHei-48"/>
      </g>
     </g>
    </g>
    <g id="xtick_2">
     <g id="line2d_2">
      <g>
       <use style="stroke:#000000;stroke-width:0.8;" x="101.308649" xlink:href="#m5c1097796e" y="159.58"/>
      </g>
     </g>
     <g id="text_2">
      <!-- 0 -->
      <g transform="translate(98.808649 173.455)scale(0.1 -0.1)">
       <use xlink:href="#SimHei-48"/>
      </g>
     </g>
    </g>
    <g id="xtick_3">
     <g id="line2d_3">
      <g>
       <use style="stroke:#000000;stroke-width:0.8;" x="163.480149" xlink:href="#m5c1097796e" y="159.58"/>
      </g>
     </g>
     <g id="text_3">
      <!-- 20 -->
      <g transform="translate(158.480149 173.455)scale(0.1 -0.1)">
       <use xlink:href="#SimHei-50"/>
       <use x="50" xlink:href="#SimHei-48"/>
      </g>
     </g>
    </g>
   </g>
   <g id="matplotlib.axis_2">
    <g id="ytick_1">
     <g id="line2d_4">
      <defs>
       <path d="M 0 0 
L -3.5 0 
" id="m25e49060cd" style="stroke:#000000;stroke-width:0.8;"/>
      </defs>
      <g>
       <use style="stroke:#000000;stroke-width:0.8;" x="32.92" xlink:href="#m25e49060cd" y="152.885036"/>
      </g>
     </g>
     <g id="text_4">
      <!-- 0 -->
      <g transform="translate(20.92 156.322536)scale(0.1 -0.1)">
       <use xlink:href="#SimHei-48"/>
      </g>
     </g>
    </g>
    <g id="ytick_2">
     <g id="line2d_5">
      <g>
       <use style="stroke:#000000;stroke-width:0.8;" x="32.92" xlink:href="#m25e49060cd" y="125.834099"/>
      </g>
     </g>
     <g id="text_5">
      <!-- 20 -->
      <g transform="translate(15.92 129.271599)scale(0.1 -0.1)">
       <use xlink:href="#SimHei-50"/>
       <use x="50" xlink:href="#SimHei-48"/>
      </g>
     </g>
    </g>
    <g id="ytick_3">
     <g id="line2d_6">
      <g>
       <use style="stroke:#000000;stroke-width:0.8;" x="32.92" xlink:href="#m25e49060cd" y="98.783163"/>
      </g>
     </g>
     <g id="text_6">
      <!-- 40 -->
      <defs>
       <path d="M 31.25 17.1875 
L 1.171875 17.1875 
L 1.171875 23.828125 
L 32.8125 69.53125 
L 38.671875 69.53125 
L 38.671875 23.828125 
L 48.046875 23.828125 
L 48.046875 17.1875 
L 38.671875 17.1875 
L 38.671875 2.34375 
L 31.25 2.34375 
z
M 31.25 23.828125 
L 31.25 54.6875 
L 9.375 23.828125 
z
" id="SimHei-52"/>
      </defs>
      <g transform="translate(15.92 102.220663)scale(0.1 -0.1)">
       <use xlink:href="#SimHei-52"/>
       <use x="50" xlink:href="#SimHei-48"/>
      </g>
     </g>
    </g>
    <g id="ytick_4">
     <g id="line2d_7">
      <g>
       <use style="stroke:#000000;stroke-width:0.8;" x="32.92" xlink:href="#m25e49060cd" y="71.732227"/>
      </g>
     </g>
     <g id="text_7">
      <!-- 60 -->
      <defs>
       <path d="M 3.515625 19.53125 
Q 4.296875 30.859375 6.046875 34.765625 
Q 7.8125 38.671875 11.328125 44.53125 
L 27.34375 69.53125 
L 36.328125 69.53125 
L 19.921875 43.75 
Q 30.46875 46.484375 36.71875 42.96875 
Q 42.96875 39.453125 45.109375 34.953125 
Q 47.265625 30.46875 47.453125 25.1875 
Q 47.65625 19.921875 45.890625 14.84375 
Q 44.140625 9.765625 39.640625 5.65625 
Q 35.15625 1.5625 27.140625 1.171875 
Q 19.140625 0.78125 13.46875 4.09375 
Q 7.8125 7.421875 5.65625 13.46875 
Q 3.515625 19.53125 4.296875 30.859375 
z
M 12.5 16.015625 
Q 19.53125 8.59375 25.390625 8.203125 
Q 31.25 7.8125 35.15625 12.109375 
Q 39.0625 16.40625 39.0625 24.609375 
Q 39.0625 32.8125 34.171875 35.9375 
Q 29.296875 39.0625 23.234375 38.28125 
Q 17.1875 37.5 14.453125 32.421875 
Q 11.71875 27.34375 12.109375 21.671875 
Q 12.5 16.015625 19.53125 8.59375 
z
" id="SimHei-54"/>
      </defs>
      <g transform="translate(15.92 75.169727)scale(0.1 -0.1)">
       <use xlink:href="#SimHei-54"/>
       <use x="50" xlink:href="#SimHei-48"/>
      </g>
     </g>
    </g>
    <g id="ytick_5">
     <g id="line2d_8">
      <g>
       <use style="stroke:#000000;stroke-width:0.8;" x="32.92" xlink:href="#m25e49060cd" y="44.681291"/>
      </g>
     </g>
     <g id="text_8">
      <!-- 80 -->
      <defs>
       <path d="M 2.734375 16.796875 
Q 2.734375 26.171875 5.078125 30.65625 
Q 7.421875 35.15625 12.890625 37.890625 
Q 8.203125 40.625 6.640625 43.9375 
Q 5.078125 47.265625 4.875 51.5625 
Q 4.6875 55.859375 6.046875 58.984375 
Q 7.421875 62.109375 10.15625 64.84375 
Q 12.890625 67.578125 16.203125 68.546875 
Q 19.53125 69.53125 23.4375 69.53125 
Q 27.34375 69.53125 30.46875 68.75 
Q 33.59375 67.96875 37.109375 65.421875 
Q 40.625 62.890625 42.1875 58.203125 
Q 43.75 53.515625 41.984375 47.265625 
Q 40.234375 41.015625 32.8125 37.5 
Q 39.453125 35.546875 42.1875 31.4375 
Q 44.921875 27.34375 44.921875 21.484375 
Q 44.921875 15.625 43.15625 12.109375 
Q 41.40625 8.59375 39.25 6.25 
Q 37.109375 3.90625 33.390625 2.53125 
Q 29.6875 1.171875 24.015625 1.171875 
Q 18.359375 1.171875 14.25 2.53125 
Q 10.15625 3.90625 7.421875 6.640625 
Q 4.6875 9.375 3.703125 13.078125 
Q 2.734375 16.796875 2.734375 26.171875 
z
M 10.9375 26.5625 
Q 10.546875 17.1875 12.296875 13.671875 
Q 14.0625 10.15625 18.75 9.171875 
Q 23.4375 8.203125 28.515625 9.375 
Q 33.59375 10.546875 35.546875 14.84375 
Q 37.5 19.140625 36.90625 23.4375 
Q 36.328125 27.734375 32.03125 30.65625 
Q 27.734375 33.59375 22.65625 33.203125 
Q 17.578125 32.8125 14.25 29.6875 
Q 10.9375 26.5625 10.546875 17.1875 
z
M 12.109375 56.25 
Q 12.109375 48.4375 14.84375 44.921875 
Q 17.578125 41.40625 23.4375 41.40625 
Q 29.296875 41.40625 32.21875 44.921875 
Q 35.15625 48.4375 34.953125 53.3125 
Q 34.765625 58.203125 31.4375 60.546875 
Q 28.125 62.890625 22.453125 62.5 
Q 16.796875 62.109375 14.453125 59.171875 
Q 12.109375 56.25 12.109375 48.4375 
z
" id="SimHei-56"/>
      </defs>
      <g transform="translate(15.92 48.118791)scale(0.1 -0.1)">
       <use xlink:href="#SimHei-56"/>
       <use x="50" xlink:href="#SimHei-48"/>
      </g>
     </g>
    </g>
    <g id="ytick_6">
     <g id="line2d_9">
      <g>
       <use style="stroke:#000000;stroke-width:0.8;" x="32.92" xlink:href="#m25e49060cd" y="17.630355"/>
      </g>
     </g>
     <g id="text_9">
      <!-- 100 -->
      <defs>
       <path d="M 21.875 56.25 
Q 16.796875 51.171875 8.984375 46.484375 
L 8.984375 53.90625 
Q 18.75 60.546875 25 69.53125 
L 29.6875 69.53125 
L 29.6875 2.34375 
L 21.875 2.34375 
z
" id="SimHei-49"/>
      </defs>
      <g transform="translate(10.92 21.067855)scale(0.1 -0.1)">
       <use xlink:href="#SimHei-49"/>
       <use x="50" xlink:href="#SimHei-48"/>
       <use x="100" xlink:href="#SimHei-48"/>
      </g>
     </g>
    </g>
   </g>
   <g id="line2d_10">
    <path clip-path="url(#p64e63262d2)" d="M 39.13715 17.562727 
L 42.871174 33.321644 
L 46.48073 47.627726 
L 49.96582 60.575299 
L 53.450909 72.672856 
L 56.81153 83.533335 
L 60.047684 93.244557 
L 63.159371 101.89109 
L 66.14659 109.55425 
L 69.009342 116.312098 
L 71.747626 122.239446 
L 74.48591 127.642038 
L 77.099727 132.309539 
L 79.589077 136.310255 
L 81.953958 139.709237 
L 84.31884 142.716821 
L 86.559255 145.205071 
L 88.675202 147.232534 
L 90.791148 148.946662 
L 92.782628 150.273728 
L 94.64964 151.265776 
L 96.516652 152.013877 
L 98.383664 152.518032 
L 100.126208 152.768484 
L 101.868753 152.806431 
L 103.611298 152.631874 
L 105.353842 152.244813 
L 107.220854 151.59429 
L 109.087866 150.699821 
L 110.954878 149.561406 
L 112.946357 148.078214 
L 114.937837 146.317465 
L 117.053784 144.14255 
L 119.169731 141.6543 
L 121.410145 138.678158 
L 123.775027 135.155577 
L 126.264376 131.024757 
L 128.753726 126.460255 
L 131.367543 121.200777 
L 134.105827 115.17802 
L 136.968579 108.320425 
L 139.83133 100.889285 
L 142.818549 92.523561 
L 145.930236 83.14519 
L 149.16639 72.672856 
L 152.527012 61.021991 
L 156.012101 48.104776 
L 159.49719 34.337544 
L 163.106746 19.182529 
L 163.480149 17.562727 
L 163.480149 17.562727 
" style="fill:none;stroke:#1f77b4;stroke-linecap:square;stroke-width:1.5;"/>
   </g>
   <g id="patch_3">
    <path d="M 32.92 159.58 
L 32.92 10.8 
" style="fill:none;stroke:#000000;stroke-linecap:square;stroke-linejoin:miter;stroke-width:0.8;"/>
   </g>
   <g id="patch_4">
    <path d="M 169.697299 159.58 
L 169.697299 10.8 
" style="fill:none;stroke:#000000;stroke-linecap:square;stroke-linejoin:miter;stroke-width:0.8;"/>
   </g>
   <g id="patch_5">
    <path d="M 32.92 159.58 
L 169.697299 159.58 
" style="fill:none;stroke:#000000;stroke-linecap:square;stroke-linejoin:miter;stroke-width:0.8;"/>
   </g>
   <g id="patch_6">
    <path d="M 32.92 10.8 
L 169.697299 10.8 
" style="fill:none;stroke:#000000;stroke-linecap:square;stroke-linejoin:miter;stroke-width:0.8;"/>
   </g>
  </g>
  <g id="axes_2">
   <g id="patch_7">
    <path d="M 180.678786 159.58 
L 317.456085 159.58 
L 317.456085 10.8 
L 180.678786 10.8 
z
" style="fill:#ffffff;"/>
   </g>
   <g id="matplotlib.axis_3">
    <g id="xtick_4">
     <g id="line2d_11">
      <path clip-path="url(#p1318dbde0c)" d="M 186.895936 159.58 
L 186.895936 10.8 
" style="fill:none;stroke:#b0b0b0;stroke-dasharray:0.8,1.32;stroke-dashoffset:0;stroke-width:0.8;"/>
     </g>
     <g id="line2d_12">
      <g>
       <use style="stroke:#000000;stroke-width:0.8;" x="186.895936" xlink:href="#m5c1097796e" y="86.035341"/>
      </g>
     </g>
     <g id="text_10">
      <!-- -20 -->
      <g transform="translate(179.395936 99.910341)scale(0.1 -0.1)">
       <use xlink:href="#SimHei-45"/>
       <use x="50" xlink:href="#SimHei-50"/>
       <use x="100" xlink:href="#SimHei-48"/>
      </g>
     </g>
    </g>
    <g id="xtick_5">
     <g id="line2d_13">
      <path clip-path="url(#p1318dbde0c)" d="M 249.067436 159.58 
L 249.067436 10.8 
" style="fill:none;stroke:#b0b0b0;stroke-dasharray:0.8,1.32;stroke-dashoffset:0;stroke-width:0.8;"/>
     </g>
     <g id="line2d_14">
      <g>
       <use style="stroke:#000000;stroke-width:0.8;" x="249.067436" xlink:href="#m5c1097796e" y="86.035341"/>
      </g>
     </g>
     <g id="text_11">
      <!-- 0 -->
      <g transform="translate(246.567436 99.910341)scale(0.1 -0.1)">
       <use xlink:href="#SimHei-48"/>
      </g>
     </g>
    </g>
    <g id="xtick_6">
     <g id="line2d_15">
      <path clip-path="url(#p1318dbde0c)" d="M 311.238935 159.58 
L 311.238935 10.8 
" style="fill:none;stroke:#b0b0b0;stroke-dasharray:0.8,1.32;stroke-dashoffset:0;stroke-width:0.8;"/>
     </g>
     <g id="line2d_16">
      <g>
       <use style="stroke:#000000;stroke-width:0.8;" x="311.238935" xlink:href="#m5c1097796e" y="86.035341"/>
      </g>
     </g>
     <g id="text_12">
      <!-- 20 -->
      <g transform="translate(306.238935 99.910341)scale(0.1 -0.1)">
       <use xlink:href="#SimHei-50"/>
       <use x="50" xlink:href="#SimHei-48"/>
      </g>
     </g>
    </g>
   </g>
   <g id="matplotlib.axis_4">
    <g id="ytick_7">
     <g id="line2d_17">
      <path clip-path="url(#p1318dbde0c)" d="M 180.678786 128.302386 
L 317.456085 128.302386 
" style="fill:none;stroke:#b0b0b0;stroke-dasharray:0.8,1.32;stroke-dashoffset:0;stroke-width:0.8;"/>
     </g>
     <g id="line2d_18">
      <g>
       <use style="stroke:#000000;stroke-width:0.8;" x="249.067436" xlink:href="#m25e49060cd" y="128.302386"/>
      </g>
     </g>
     <g id="text_13">
      <!-- -50 -->
      <defs>
       <path d="M 8.59375 20.703125 
Q 11.328125 10.15625 17.96875 8.984375 
Q 24.609375 7.8125 28.703125 10.34375 
Q 32.8125 12.890625 34.5625 16.984375 
Q 36.328125 21.09375 36.125 26.171875 
Q 35.9375 31.25 33.390625 34.765625 
Q 30.859375 38.28125 26.953125 39.453125 
Q 23.046875 40.625 18.15625 39.453125 
Q 13.28125 38.28125 10.15625 33.984375 
L 3.515625 34.765625 
Q 4.296875 37.109375 10.9375 68.359375 
L 41.796875 68.359375 
L 41.796875 61.328125 
L 16.796875 61.328125 
Q 14.84375 50.78125 12.890625 44.53125 
Q 18.75 47.265625 23.828125 47.0625 
Q 28.90625 46.875 33.59375 44.71875 
Q 38.28125 42.578125 40.421875 38.859375 
Q 42.578125 35.15625 43.546875 31.4375 
Q 44.53125 27.734375 44.328125 23.4375 
Q 44.140625 19.140625 42.578125 14.640625 
Q 41.015625 10.15625 37.890625 7.21875 
Q 34.765625 4.296875 30.265625 2.53125 
Q 25.78125 0.78125 19.921875 1.171875 
Q 14.0625 1.5625 8.78125 5.46875 
Q 3.515625 9.375 1.5625 18.75 
z
" id="SimHei-53"/>
      </defs>
      <g transform="translate(227.067436 131.739886)scale(0.1 -0.1)">
       <use xlink:href="#SimHei-45"/>
       <use x="50" xlink:href="#SimHei-53"/>
       <use x="100" xlink:href="#SimHei-48"/>
      </g>
     </g>
    </g>
    <g id="ytick_8">
     <g id="line2d_19">
      <path clip-path="url(#p1318dbde0c)" d="M 180.678786 86.035341 
L 317.456085 86.035341 
" style="fill:none;stroke:#b0b0b0;stroke-dasharray:0.8,1.32;stroke-dashoffset:0;stroke-width:0.8;"/>
     </g>
     <g id="line2d_20">
      <g>
       <use style="stroke:#000000;stroke-width:0.8;" x="249.067436" xlink:href="#m25e49060cd" y="86.035341"/>
      </g>
     </g>
     <g id="text_14">
      <!-- 0 -->
      <g transform="translate(237.067436 89.472841)scale(0.1 -0.1)">
       <use xlink:href="#SimHei-48"/>
      </g>
     </g>
    </g>
    <g id="ytick_9">
     <g id="line2d_21">
      <path clip-path="url(#p1318dbde0c)" d="M 180.678786 43.768295 
L 317.456085 43.768295 
" style="fill:none;stroke:#b0b0b0;stroke-dasharray:0.8,1.32;stroke-dashoffset:0;stroke-width:0.8;"/>
     </g>
     <g id="line2d_22">
      <g>
       <use style="stroke:#000000;stroke-width:0.8;" x="249.067436" xlink:href="#m25e49060cd" y="43.768295"/>
      </g>
     </g>
     <g id="text_15">
      <!-- 50 -->
      <g transform="translate(232.067436 47.205795)scale(0.1 -0.1)">
       <use xlink:href="#SimHei-53"/>
       <use x="50" xlink:href="#SimHei-48"/>
      </g>
     </g>
    </g>
   </g>
   <g id="line2d_23">
    <path clip-path="url(#p1318dbde0c)" d="M 186.895936 152.817273 
L 311.238935 17.562727 
L 311.238935 17.562727 
" style="fill:none;stroke:#1f77b4;stroke-linecap:square;stroke-width:1.5;"/>
   </g>
   <g id="patch_8">
    <path d="M 249.067436 159.58 
L 249.067436 10.8 
" style="fill:none;stroke:#000000;stroke-linecap:square;stroke-linejoin:miter;stroke-width:0.8;"/>
   </g>
   <g id="patch_9">
    <path d="M 317.456085 159.58 
L 317.456085 10.8 
" style="fill:none;"/>
   </g>
   <g id="patch_10">
    <path d="M 180.678786 86.035341 
L 317.456085 86.035341 
" style="fill:none;stroke:#000000;stroke-linecap:square;stroke-linejoin:miter;stroke-width:0.8;"/>
   </g>
   <g id="patch_11">
    <path d="M 180.678786 10.8 
L 317.456085 10.8 
" style="fill:none;"/>
   </g>
   <g id="patch_12">
    <path d="M 321.832639 106.969712 
Q 286.607293 96.904734 251.381948 86.839756 
" style="fill:none;stroke:#000000;stroke-linecap:round;"/>
    <path d="M 316.887729 102.436736 
L 321.832639 106.969712 
L 315.239313 108.205854 
L 316.887729 102.436736 
z
" style="fill:#1f77b4;stroke:#000000;stroke-linecap:round;"/>
    <path d="M 256.326857 91.372732 
L 251.381948 86.839756 
L 257.975274 85.603614 
L 256.326857 91.372732 
z
" style="fill:#1f77b4;stroke:#000000;stroke-linecap:round;"/>
   </g>
   <g id="text_16">
    <!-- (-0.22022022022022014, -->
    <defs>
     <path d="M 46.484375 -3.125 
L 42.1875 -7.421875 
Q 32.421875 1.953125 27.53125 12.109375 
Q 22.65625 22.265625 22.65625 35.15625 
Q 22.65625 48.046875 27.53125 58.203125 
Q 32.421875 68.359375 42.1875 78.125 
L 46.484375 73.828125 
Q 37.5 65.234375 33 56.046875 
Q 28.515625 46.875 28.515625 35.15625 
Q 28.515625 23.4375 33 14.25 
Q 37.5 5.078125 46.484375 -3.125 
z
" id="SimHei-40"/>
     <path d="M 16.796875 1.953125 
L 7.8125 1.953125 
L 7.8125 10.546875 
L 16.796875 10.546875 
z
" id="SimHei-46"/>
     <path d="M 17.1875 1.953125 
L 12.109375 -8.59375 
L 8.203125 -8.59375 
L 12.109375 1.953125 
L 8.203125 1.953125 
L 8.203125 10.546875 
L 17.1875 10.546875 
z
" id="SimHei-44"/>
    </defs>
    <g transform="translate(298.382865 120.959387)scale(0.15 -0.15)">
     <use xlink:href="#SimHei-40"/>
     <use x="50" xlink:href="#SimHei-45"/>
     <use x="100" xlink:href="#SimHei-48"/>
     <use x="150" xlink:href="#SimHei-46"/>
     <use x="200" xlink:href="#SimHei-50"/>
     <use x="250" xlink:href="#SimHei-50"/>
     <use x="300" xlink:href="#SimHei-48"/>
     <use x="350" xlink:href="#SimHei-50"/>
     <use x="400" xlink:href="#SimHei-50"/>
     <use x="450" xlink:href="#SimHei-48"/>
     <use x="500" xlink:href="#SimHei-50"/>
     <use x="550" xlink:href="#SimHei-50"/>
     <use x="600" xlink:href="#SimHei-48"/>
     <use x="650" xlink:href="#SimHei-50"/>
     <use x="700" xlink:href="#SimHei-50"/>
     <use x="750" xlink:href="#SimHei-48"/>
     <use x="800" xlink:href="#SimHei-50"/>
     <use x="850" xlink:href="#SimHei-50"/>
     <use x="900" xlink:href="#SimHei-48"/>
     <use x="950" xlink:href="#SimHei-49"/>
     <use x="1000" xlink:href="#SimHei-52"/>
     <use x="1050" xlink:href="#SimHei-44"/>
    </g>
    <!-- 0.06212423634846056) -->
    <defs>
     <path d="M 3.90625 19.140625 
L 10.9375 20.3125 
Q 12.5 15.234375 16.015625 11.90625 
Q 19.53125 8.59375 24.796875 8.78125 
Q 30.078125 8.984375 33.203125 13.078125 
Q 36.328125 17.1875 35.9375 22.453125 
Q 35.546875 27.734375 31.828125 30.65625 
Q 28.125 33.59375 19.921875 34.765625 
L 19.921875 39.84375 
Q 28.125 40.625 31.828125 44.140625 
Q 35.546875 47.65625 35.15625 53.3125 
Q 34.765625 58.984375 30.078125 61.515625 
Q 25.390625 64.0625 20.109375 62.109375 
Q 14.84375 60.15625 11.71875 51.171875 
L 4.6875 52.34375 
Q 7.03125 59.375 11.125 64.0625 
Q 15.234375 68.75 22.265625 69.53125 
Q 29.296875 70.3125 34.5625 67.765625 
Q 39.84375 65.234375 41.984375 59.953125 
Q 44.140625 54.6875 42.578125 48.4375 
Q 41.015625 42.1875 33.59375 37.5 
Q 39.0625 35.15625 41.984375 30.46875 
Q 44.921875 25.78125 43.9375 18.15625 
Q 42.96875 10.546875 37.109375 5.859375 
Q 31.25 1.171875 23.828125 1.359375 
Q 16.40625 1.5625 10.9375 6.046875 
Q 5.46875 10.546875 3.90625 19.140625 
z
" id="SimHei-51"/>
     <path d="M 26.171875 35.15625 
Q 26.171875 22.265625 21.28125 12.109375 
Q 16.40625 1.953125 6.640625 -7.421875 
L 2.34375 -3.125 
Q 11.328125 5.078125 15.8125 14.25 
Q 20.3125 23.4375 20.3125 35.15625 
Q 20.3125 46.875 15.8125 56.046875 
Q 11.328125 65.234375 2.34375 73.828125 
L 6.640625 78.125 
Q 16.40625 68.359375 21.28125 58.203125 
Q 26.171875 48.046875 26.171875 35.15625 
z
" id="SimHei-41"/>
    </defs>
    <g transform="translate(298.382865 135.982825)scale(0.15 -0.15)">
     <use xlink:href="#SimHei-48"/>
     <use x="50" xlink:href="#SimHei-46"/>
     <use x="100" xlink:href="#SimHei-48"/>
     <use x="150" xlink:href="#SimHei-54"/>
     <use x="200" xlink:href="#SimHei-50"/>
     <use x="250" xlink:href="#SimHei-49"/>
     <use x="300" xlink:href="#SimHei-50"/>
     <use x="350" xlink:href="#SimHei-52"/>
     <use x="400" xlink:href="#SimHei-50"/>
     <use x="450" xlink:href="#SimHei-51"/>
     <use x="500" xlink:href="#SimHei-54"/>
     <use x="550" xlink:href="#SimHei-51"/>
     <use x="600" xlink:href="#SimHei-52"/>
     <use x="650" xlink:href="#SimHei-56"/>
     <use x="700" xlink:href="#SimHei-52"/>
     <use x="750" xlink:href="#SimHei-54"/>
     <use x="800" xlink:href="#SimHei-48"/>
     <use x="850" xlink:href="#SimHei-53"/>
     <use x="900" xlink:href="#SimHei-54"/>
     <use x="950" xlink:href="#SimHei-41"/>
    </g>
   </g>
   <g id="patch_13">
    <path d="M 309.603958 69.105364 
Q 304.962761 51.202913 300.321564 33.300462 
" style="fill:none;stroke:#000000;stroke-linecap:round;"/>
    <path d="M 311.002237 62.544509 
L 309.603958 69.105364 
L 305.194242 64.050228 
L 311.002237 62.544509 
z
" style="fill:#1f77b4;stroke:#000000;stroke-linecap:round;"/>
    <path d="M 298.923284 39.861316 
L 300.321564 33.300462 
L 304.73128 38.355598 
L 298.923284 39.861316 
z
" style="fill:#1f77b4;stroke:#000000;stroke-linecap:round;"/>
   </g>
   <g id="text_17">
    <!-- (16.236236236236238, -->
    <g transform="translate(239.538993 85.258423)scale(0.15 -0.15)">
     <use xlink:href="#SimHei-40"/>
     <use x="50" xlink:href="#SimHei-49"/>
     <use x="100" xlink:href="#SimHei-54"/>
     <use x="150" xlink:href="#SimHei-46"/>
     <use x="200" xlink:href="#SimHei-50"/>
     <use x="250" xlink:href="#SimHei-51"/>
     <use x="300" xlink:href="#SimHei-54"/>
     <use x="350" xlink:href="#SimHei-50"/>
     <use x="400" xlink:href="#SimHei-51"/>
     <use x="450" xlink:href="#SimHei-54"/>
     <use x="500" xlink:href="#SimHei-50"/>
     <use x="550" xlink:href="#SimHei-51"/>
     <use x="600" xlink:href="#SimHei-54"/>
     <use x="650" xlink:href="#SimHei-50"/>
     <use x="700" xlink:href="#SimHei-51"/>
     <use x="750" xlink:href="#SimHei-54"/>
     <use x="800" xlink:href="#SimHei-50"/>
     <use x="850" xlink:href="#SimHei-51"/>
     <use x="900" xlink:href="#SimHei-56"/>
     <use x="950" xlink:href="#SimHei-44"/>
    </g>
    <!-- 65.95384177971766) -->
    <defs>
     <path d="M 12.5 1.171875 
Q 21.09375 15.625 26.5625 27.34375 
Q 16.796875 25.78125 10.34375 29.875 
Q 3.90625 33.984375 2.53125 41.015625 
Q 1.171875 48.046875 2.734375 53.703125 
Q 4.296875 59.375 7.609375 63.078125 
Q 10.9375 66.796875 15.625 68.359375 
Q 20.3125 69.921875 24.015625 69.921875 
Q 27.734375 69.921875 31.640625 68.359375 
Q 35.546875 66.796875 38.671875 63.671875 
Q 41.796875 60.546875 42.96875 57.21875 
Q 44.140625 53.90625 44.140625 48.625 
Q 44.140625 43.359375 40.234375 35.15625 
Q 36.328125 26.953125 21.09375 1.171875 
z
M 9.765625 50 
Q 10.9375 39.84375 14.640625 36.515625 
Q 18.359375 33.203125 22.65625 33.59375 
Q 26.953125 33.984375 29.484375 35.9375 
Q 32.03125 37.890625 34.375 42.578125 
Q 35.9375 48.4375 35.15625 52.53125 
Q 34.375 56.640625 31.046875 59.375 
Q 27.734375 62.109375 23.828125 62.109375 
Q 21.484375 62.5 17.765625 60.9375 
Q 14.0625 59.375 11.90625 54.6875 
Q 9.765625 50 10.9375 39.84375 
z
" id="SimHei-57"/>
     <path d="M 13.28125 2.34375 
Q 20.3125 32.03125 37.890625 61.328125 
L 4.296875 61.328125 
L 4.296875 68.359375 
L 46.09375 68.359375 
L 46.09375 61.71875 
Q 27.734375 32.03125 21.875 2.34375 
L 13.28125 2.34375 
z
" id="SimHei-55"/>
    </defs>
    <g transform="translate(239.538993 100.28186)scale(0.15 -0.15)">
     <use xlink:href="#SimHei-54"/>
     <use x="50" xlink:href="#SimHei-53"/>
     <use x="100" xlink:href="#SimHei-46"/>
     <use x="150" xlink:href="#SimHei-57"/>
     <use x="200" xlink:href="#SimHei-53"/>
     <use x="250" xlink:href="#SimHei-51"/>
     <use x="300" xlink:href="#SimHei-56"/>
     <use x="350" xlink:href="#SimHei-52"/>
     <use x="400" xlink:href="#SimHei-49"/>
     <use x="450" xlink:href="#SimHei-55"/>
     <use x="500" xlink:href="#SimHei-55"/>
     <use x="550" xlink:href="#SimHei-57"/>
     <use x="600" xlink:href="#SimHei-55"/>
     <use x="650" xlink:href="#SimHei-49"/>
     <use x="700" xlink:href="#SimHei-55"/>
     <use x="750" xlink:href="#SimHei-54"/>
     <use x="800" xlink:href="#SimHei-54"/>
     <use x="850" xlink:href="#SimHei-41"/>
    </g>
   </g>
   <g id="legend_1">
    <g id="patch_14">
     <path d="M 187.678786 32.05 
L 259.578786 32.05 
Q 261.578786 32.05 261.578786 30.05 
L 261.578786 17.8 
Q 261.578786 15.8 259.578786 15.8 
L 187.678786 15.8 
Q 185.678786 15.8 185.678786 17.8 
L 185.678786 30.05 
Q 185.678786 32.05 187.678786 32.05 
z
" style="fill:#ffffff;opacity:0.8;stroke:#cccccc;stroke-linejoin:miter;"/>
    </g>
    <g id="line2d_24">
     <path d="M 189.678786 23.3 
L 209.678786 23.3 
" style="fill:none;stroke:#1f77b4;stroke-linecap:square;stroke-width:1.5;"/>
    </g>
    <g id="line2d_25"/>
    <g id="text_18">
     <!-- $4*x+1$ -->
     <defs>
      <path d="M 37.796875 64.3125 
L 12.890625 25.390625 
L 37.796875 25.390625 
z
M 35.203125 72.90625 
L 47.609375 72.90625 
L 47.609375 25.390625 
L 58.015625 25.390625 
L 58.015625 17.1875 
L 47.609375 17.1875 
L 47.609375 0 
L 37.796875 0 
L 37.796875 17.1875 
L 4.890625 17.1875 
L 4.890625 26.703125 
z
" id="DejaVuSans-52"/>
      <path d="M 47.015625 60.890625 
L 29.5 51.421875 
L 47.015625 41.890625 
L 44.1875 37.109375 
L 27.78125 47.015625 
L 27.78125 28.609375 
L 22.21875 28.609375 
L 22.21875 47.015625 
L 5.8125 37.109375 
L 2.984375 41.890625 
L 20.515625 51.421875 
L 2.984375 60.890625 
L 5.8125 65.71875 
L 22.21875 55.8125 
L 22.21875 74.21875 
L 27.78125 74.21875 
L 27.78125 55.8125 
L 44.1875 65.71875 
z
" id="DejaVuSans-42"/>
      <path d="M 60.015625 54.6875 
L 34.90625 27.875 
L 50.296875 0 
L 39.984375 0 
L 28.421875 21.6875 
L 8.296875 0 
L -2.59375 0 
L 24.3125 28.8125 
L 10.015625 54.6875 
L 20.3125 54.6875 
L 30.8125 34.90625 
L 49.125 54.6875 
z
" id="DejaVuSans-Oblique-120"/>
      <path d="M 46 62.703125 
L 46 35.5 
L 73.1875 35.5 
L 73.1875 27.203125 
L 46 27.203125 
L 46 0 
L 37.796875 0 
L 37.796875 27.203125 
L 10.59375 27.203125 
L 10.59375 35.5 
L 37.796875 35.5 
L 37.796875 62.703125 
z
" id="DejaVuSans-43"/>
      <path d="M 12.40625 8.296875 
L 28.515625 8.296875 
L 28.515625 63.921875 
L 10.984375 60.40625 
L 10.984375 69.390625 
L 28.421875 72.90625 
L 38.28125 72.90625 
L 38.28125 8.296875 
L 54.390625 8.296875 
L 54.390625 0 
L 12.40625 0 
z
" id="DejaVuSans-49"/>
     </defs>
     <g transform="translate(217.678786 26.8)scale(0.1 -0.1)">
      <use transform="translate(0 0.78125)" xlink:href="#DejaVuSans-52"/>
      <use transform="translate(83.105469 0.78125)" xlink:href="#DejaVuSans-42"/>
      <use transform="translate(152.587891 0.78125)" xlink:href="#DejaVuSans-Oblique-120"/>
      <use transform="translate(231.25 0.78125)" xlink:href="#DejaVuSans-43"/>
      <use transform="translate(334.521484 0.78125)" xlink:href="#DejaVuSans-49"/>
     </g>
    </g>
   </g>
   <g id="PathCollection_1">
    <defs>
     <path d="M 0 -3 
L -3 3 
L 3 3 
z
" id="m24678e33a3" style="stroke:#ff0000;"/>
    </defs>
    <g clip-path="url(#p1318dbde0c)">
     <use style="fill:#ff0000;stroke:#ff0000;" x="248.382865" xlink:href="#m24678e33a3" y="85.982825"/>
     <use style="fill:#ff0000;stroke:#ff0000;" x="299.538993" xlink:href="#m24678e33a3" y="30.28186"/>
    </g>
   </g>
  </g>
 </g>
 <defs>
  <clipPath id="p64e63262d2">
   <rect height="148.78" width="136.777299" x="32.92" y="10.8"/>
  </clipPath>
  <clipPath id="p1318dbde0c">
   <rect height="148.78" width="136.777299" x="180.678786" y="10.8"/>
  </clipPath>
 </defs>
</svg>
